<?xml version="1.0" encoding="UTF-8" standalone="no"?>
<!DOCTYPE svg PUBLIC "-//W3C//DTD SVG 1.1//EN"
 "http://www.w3.org/Graphics/SVG/1.1/DTD/svg11.dtd">
<!-- Generated by graphviz version 2.40.1 (20161225.0304)
 -->
<!-- Title: orders Pages: 1 -->
<svg width="460pt" height="532pt"
 viewBox="0.00 0.00 459.50 532.00" xmlns="http://www.w3.org/2000/svg" xmlns:xlink="http://www.w3.org/1999/xlink">
<g id="graph0" class="graph" transform="scale(1 1) rotate(0) translate(4 528)">
<title>orders</title>
<polygon fill="#ffffff" stroke="transparent" points="-4,4 -4,-528 455.5,-528 455.5,4 -4,4"/>
<!-- orders -->
<g id="node1" class="node">
<title>orders</title>
<polygon fill="#efefef" stroke="transparent" points="46.5,-442.5 46.5,-477.5 211.5,-477.5 211.5,-442.5 46.5,-442.5"/>
<polygon fill="none" stroke="#000000" points="46.5,-442.5 46.5,-477.5 211.5,-477.5 211.5,-442.5 46.5,-442.5"/>
<text text-anchor="start" x="54.8716" y="-455.3" font-family="Arial Bold" font-size="18.00" fill="#000000">orders</text>
<text text-anchor="start" x="105.8746" y="-455.3" font-family="Arial" font-size="14.00" fill="#000000"> </text>
<text text-anchor="start" x="109.7652" y="-455.3" font-family="Arial" font-size="14.00" fill="#666666">[BASE TABLE]</text>
<polygon fill="none" stroke="#000000" points="46.5,-412.5 46.5,-442.5 211.5,-442.5 211.5,-412.5 46.5,-412.5"/>
<text text-anchor="start" x="53.5" y="-423.9" font-family="Arial" font-size="14.00" fill="#000000">id </text>
<text text-anchor="start" x="68.2798" y="-423.9" font-family="Arial" font-size="14.00" fill="#666666">[bigint unsigned]</text>
<polygon fill="none" stroke="#000000" points="46.5,-382.5 46.5,-412.5 211.5,-412.5 211.5,-382.5 46.5,-382.5"/>
<text text-anchor="start" x="53.1431" y="-393.9" font-family="Arial" font-size="14.00" fill="#000000">user_id </text>
<text text-anchor="start" x="102.9313" y="-393.9" font-family="Arial" font-size="14.00" fill="#666666">[bigint unsigned]</text>
<polygon fill="none" stroke="#000000" points="46.5,-352.5 46.5,-382.5 211.5,-382.5 211.5,-352.5 46.5,-352.5"/>
<text text-anchor="start" x="53.5" y="-363.9" font-family="Arial" font-size="14.00" fill="#000000">create_at </text>
<text text-anchor="start" x="115.7454" y="-363.9" font-family="Arial" font-size="14.00" fill="#666666">[datetime(3)]</text>
<polygon fill="none" stroke="#000000" points="46.5,-322.5 46.5,-352.5 211.5,-352.5 211.5,-322.5 46.5,-322.5"/>
<text text-anchor="start" x="53.5" y="-333.9" font-family="Arial" font-size="14.00" fill="#000000">update_at </text>
<text text-anchor="start" x="119.65" y="-333.9" font-family="Arial" font-size="14.00" fill="#666666">[datetime(3)]</text>
<polygon fill="none" stroke="#000000" stroke-width="3" points="44.5,-321.5 44.5,-479.5 212.5,-479.5 212.5,-321.5 44.5,-321.5"/>
</g>
<!-- users -->
<g id="node2" class="node">
<title>users</title>
<polygon fill="#efefef" stroke="transparent" points="46.5,-162.5 46.5,-197.5 212.5,-197.5 212.5,-162.5 46.5,-162.5"/>
<polygon fill="none" stroke="#000000" points="46.5,-162.5 46.5,-197.5 212.5,-197.5 212.5,-162.5 46.5,-162.5"/>
<text text-anchor="start" x="58.8708" y="-175.3" font-family="Arial Bold" font-size="18.00" fill="#000000">users</text>
<text text-anchor="start" x="102.8754" y="-175.3" font-family="Arial" font-size="14.00" fill="#000000"> </text>
<text text-anchor="start" x="106.766" y="-175.3" font-family="Arial" font-size="14.00" fill="#666666">[BASE TABLE]</text>
<polygon fill="none" stroke="#000000" points="46.5,-132.5 46.5,-162.5 212.5,-162.5 212.5,-132.5 46.5,-132.5"/>
<text text-anchor="start" x="53.5" y="-143.9" font-family="Arial" font-size="14.00" fill="#000000">id </text>
<text text-anchor="start" x="68.2798" y="-143.9" font-family="Arial" font-size="14.00" fill="#666666">[bigint unsigned]</text>
<polygon fill="none" stroke="#000000" points="46.5,-102.5 46.5,-132.5 212.5,-132.5 212.5,-102.5 46.5,-102.5"/>
<text text-anchor="start" x="53.5" y="-113.9" font-family="Arial" font-size="14.00" fill="#000000">name </text>
<text text-anchor="start" x="92.399" y="-113.9" font-family="Arial" font-size="14.00" fill="#666666">[varchar(255)]</text>
<polygon fill="none" stroke="#000000" points="46.5,-72.5 46.5,-102.5 212.5,-102.5 212.5,-72.5 46.5,-72.5"/>
<text text-anchor="start" x="53.5" y="-83.9" font-family="Arial" font-size="14.00" fill="#000000">created_at </text>
<text text-anchor="start" x="123.528" y="-83.9" font-family="Arial" font-size="14.00" fill="#666666">[datetime(3)]</text>
<polygon fill="none" stroke="#000000" points="46.5,-42.5 46.5,-72.5 212.5,-72.5 212.5,-42.5 46.5,-42.5"/>
<text text-anchor="start" x="53.2518" y="-53.9" font-family="Arial" font-size="14.00" fill="#000000">updated_at </text>
<text text-anchor="start" x="127.1844" y="-53.9" font-family="Arial" font-size="14.00" fill="#666666">[datetime(3)]</text>
</g>
<!-- orders&#45;&gt;users -->
<g id="edge1" class="edge">
<title>orders:user_id&#45;&gt;users:id</title>
<path fill="none" stroke="#000000" d="M221.4715,-396.4325C262.2624,-386.9013 242.7953,-315.8596 211.5,-277 164.4211,-218.5418 93.5789,-299.4582 46.5,-241 20.4351,-208.6351 4.9444,-147.5 46.5,-147.5"/>
<polygon fill="#000000" stroke="#000000" points="221.4432,-396.4354 211.0209,-393.0256 216.4716,-396.9677 211.5,-397.5 211.5,-397.5 211.5,-397.5 216.4716,-396.9677 211.9791,-401.9744 221.4432,-396.4354 221.4432,-396.4354"/>
<text text-anchor="start" x="218.445" y="-407.5" font-family="Arial" font-size="10.00" fill="#000000">FOREIGN KEY (user_id) REFERENCES users (id)</text>
</g>
</g>
</svg>
