<?xml version="1.0" encoding="UTF-8" standalone="no"?>
<!DOCTYPE svg PUBLIC "-//W3C//DTD SVG 1.1//EN"
 "http://www.w3.org/Graphics/SVG/1.1/DTD/svg11.dtd">
<!-- Generated by graphviz version 2.40.1 (20161225.0304)
 -->
<!-- Title: orders Pages: 1 -->
<svg width="519pt" height="592pt"
 viewBox="0.00 0.00 519.00 592.00" xmlns="http://www.w3.org/2000/svg" xmlns:xlink="http://www.w3.org/1999/xlink">
<g id="graph0" class="graph" transform="scale(1 1) rotate(0) translate(4 588)">
<title>orders</title>
<polygon fill="#ffffff" stroke="transparent" points="-4,4 -4,-588 515,-588 515,4 -4,4"/>
<!-- orders -->
<g id="node1" class="node">
<title>orders</title>
<polygon fill="#efefef" stroke="transparent" points="46,-502.5 46,-537.5 246,-537.5 246,-502.5 46,-502.5"/>
<polygon fill="none" stroke="#000000" points="46,-502.5 46,-537.5 246,-537.5 246,-502.5 46,-502.5"/>
<text text-anchor="start" x="71.8716" y="-515.3" font-family="Arial Bold" font-size="18.00" fill="#000000">orders</text>
<text text-anchor="start" x="122.8746" y="-515.3" font-family="Arial" font-size="14.00" fill="#000000"> </text>
<text text-anchor="start" x="126.7652" y="-515.3" font-family="Arial" font-size="14.00" fill="#666666">[BASE TABLE]</text>
<polygon fill="none" stroke="#000000" points="46,-472.5 46,-502.5 246,-502.5 246,-472.5 46,-472.5"/>
<text text-anchor="start" x="53" y="-483.9" font-family="Arial" font-size="14.00" fill="#000000">id </text>
<text text-anchor="start" x="67.7798" y="-483.9" font-family="Arial" font-size="14.00" fill="#666666">[bigint unsigned]</text>
<polygon fill="none" stroke="#000000" points="46,-442.5 46,-472.5 246,-472.5 246,-442.5 46,-442.5"/>
<text text-anchor="start" x="53" y="-453.9" font-family="Arial" font-size="14.00" fill="#000000">creator_id </text>
<text text-anchor="start" x="119.122" y="-453.9" font-family="Arial" font-size="14.00" fill="#666666">[bigint unsigned]</text>
<polygon fill="none" stroke="#000000" points="46,-412.5 46,-442.5 246,-442.5 246,-412.5 46,-412.5"/>
<text text-anchor="start" x="52.6396" y="-423.9" font-family="Arial" font-size="14.00" fill="#000000">contractor_id </text>
<text text-anchor="start" x="137.4348" y="-423.9" font-family="Arial" font-size="14.00" fill="#666666">[bigint unsigned]</text>
<polygon fill="none" stroke="#000000" points="46,-382.5 46,-412.5 246,-412.5 246,-382.5 46,-382.5"/>
<text text-anchor="start" x="53" y="-393.9" font-family="Arial" font-size="14.00" fill="#000000">create_at </text>
<text text-anchor="start" x="115.2454" y="-393.9" font-family="Arial" font-size="14.00" fill="#666666">[datetime(3)]</text>
<polygon fill="none" stroke="#000000" points="46,-352.5 46,-382.5 246,-382.5 246,-352.5 46,-352.5"/>
<text text-anchor="start" x="53" y="-363.9" font-family="Arial" font-size="14.00" fill="#000000">update_at </text>
<text text-anchor="start" x="119.15" y="-363.9" font-family="Arial" font-size="14.00" fill="#666666">[datetime(3)]</text>
<polygon fill="none" stroke="#000000" stroke-width="3" points="44.5,-351.5 44.5,-539.5 247.5,-539.5 247.5,-351.5 44.5,-351.5"/>
</g>
<!-- users -->
<g id="node2" class="node">
<title>users</title>
<polygon fill="#efefef" stroke="transparent" points="63,-192.5 63,-227.5 229,-227.5 229,-192.5 63,-192.5"/>
<polygon fill="none" stroke="#000000" points="63,-192.5 63,-227.5 229,-227.5 229,-192.5 63,-192.5"/>
<text text-anchor="start" x="75.3708" y="-205.3" font-family="Arial Bold" font-size="18.00" fill="#000000">users</text>
<text text-anchor="start" x="119.3754" y="-205.3" font-family="Arial" font-size="14.00" fill="#000000"> </text>
<text text-anchor="start" x="123.266" y="-205.3" font-family="Arial" font-size="14.00" fill="#666666">[BASE TABLE]</text>
<polygon fill="none" stroke="#000000" points="63,-162.5 63,-192.5 229,-192.5 229,-162.5 63,-162.5"/>
<text text-anchor="start" x="70" y="-173.9" font-family="Arial" font-size="14.00" fill="#000000">id </text>
<text text-anchor="start" x="84.7798" y="-173.9" font-family="Arial" font-size="14.00" fill="#666666">[bigint unsigned]</text>
<polygon fill="none" stroke="#000000" points="63,-132.5 63,-162.5 229,-162.5 229,-132.5 63,-132.5"/>
<text text-anchor="start" x="70" y="-143.9" font-family="Arial" font-size="14.00" fill="#000000">name </text>
<text text-anchor="start" x="108.899" y="-143.9" font-family="Arial" font-size="14.00" fill="#666666">[varchar(255)]</text>
<polygon fill="none" stroke="#000000" points="63,-102.5 63,-132.5 229,-132.5 229,-102.5 63,-102.5"/>
<text text-anchor="start" x="70" y="-113.9" font-family="Arial" font-size="14.00" fill="#000000">email </text>
<text text-anchor="start" x="107.3296" y="-113.9" font-family="Arial" font-size="14.00" fill="#666666">[varchar(255)]</text>
<polygon fill="none" stroke="#000000" points="63,-72.5 63,-102.5 229,-102.5 229,-72.5 63,-72.5"/>
<text text-anchor="start" x="70" y="-83.9" font-family="Arial" font-size="14.00" fill="#000000">created_at </text>
<text text-anchor="start" x="140.028" y="-83.9" font-family="Arial" font-size="14.00" fill="#666666">[datetime(3)]</text>
<polygon fill="none" stroke="#000000" points="63,-42.5 63,-72.5 229,-72.5 229,-42.5 63,-42.5"/>
<text text-anchor="start" x="69.7518" y="-53.9" font-family="Arial" font-size="14.00" fill="#000000">updated_at </text>
<text text-anchor="start" x="143.6844" y="-53.9" font-family="Arial" font-size="14.00" fill="#666666">[datetime(3)]</text>
</g>
<!-- orders&#45;&gt;users -->
<g id="edge1" class="edge">
<title>orders:creator_id&#45;&gt;users:id</title>
<path fill="none" stroke="#000000" d="M255.835,-454.9069C306.2656,-426.6795 287.806,-177.5 229,-177.5"/>
<polygon fill="#000000" stroke="#000000" points="255.6696,-454.9505 244.8527,-453.1487 250.8348,-456.2252 246,-457.5 246,-457.5 246,-457.5 250.8348,-456.2252 247.1473,-461.8513 255.6696,-454.9505 255.6696,-454.9505"/>
<text text-anchor="start" x="253.1115" y="-467.5" font-family="Arial" font-size="10.00" fill="#000000">FOREIGN KEY (creator_id) REFERENCES users (id)</text>
</g>
<!-- orders&#45;&gt;users -->
<g id="edge2" class="edge">
<title>orders:contractor_id&#45;&gt;users:id</title>
<path fill="none" stroke="#000000" d="M256.0657,-426.7828C356.213,-412.1191 336.8875,-177.5 229,-177.5"/>
<polygon fill="#000000" stroke="#000000" points="255.9747,-426.7892 245.6802,-423.0114 250.9874,-427.1446 246,-427.5 246,-427.5 246,-427.5 250.9874,-427.1446 246.3198,-431.9886 255.9747,-426.7892 255.9747,-426.7892"/>
<text text-anchor="start" x="253.4425" y="-437.5" font-family="Arial" font-size="10.00" fill="#000000">FOREIGN KEY (contractor_id) REFERENCES users (id)</text>
</g>
</g>
</svg>
