<?xml version="1.0" encoding="UTF-8" standalone="no"?>
<!DOCTYPE svg PUBLIC "-//W3C//DTD SVG 1.1//EN"
 "http://www.w3.org/Graphics/SVG/1.1/DTD/svg11.dtd">
<!-- Generated by graphviz version 2.40.1 (20161225.0304)
 -->
<!-- Title: mydb Pages: 1 -->
<svg width="600pt" height="586pt"
 viewBox="0.00 0.00 600.00 586.00" xmlns="http://www.w3.org/2000/svg" xmlns:xlink="http://www.w3.org/1999/xlink">
<g id="graph0" class="graph" transform="scale(1 1) rotate(0) translate(4 582)">
<title>mydb</title>
<polygon fill="#ffffff" stroke="transparent" points="-4,4 -4,-582 596,-582 596,4 -4,4"/>
<!-- orders -->
<g id="node1" class="node">
<title>orders</title>
<polygon fill="#efefef" stroke="transparent" points="65,-499.5 65,-534.5 265,-534.5 265,-499.5 65,-499.5"/>
<polygon fill="none" stroke="#000000" points="65,-499.5 65,-534.5 265,-534.5 265,-499.5 65,-499.5"/>
<text text-anchor="start" x="90.8716" y="-512.3" font-family="Arial Bold" font-size="18.00" fill="#000000">orders</text>
<text text-anchor="start" x="141.8746" y="-512.3" font-family="Arial" font-size="14.00" fill="#000000"> </text>
<text text-anchor="start" x="145.7652" y="-512.3" font-family="Arial" font-size="14.00" fill="#666666">[BASE TABLE]</text>
<polygon fill="none" stroke="#000000" points="65,-469.5 65,-499.5 265,-499.5 265,-469.5 65,-469.5"/>
<text text-anchor="start" x="72" y="-480.9" font-family="Arial" font-size="14.00" fill="#000000">id </text>
<text text-anchor="start" x="86.7798" y="-480.9" font-family="Arial" font-size="14.00" fill="#666666">[bigint unsigned]</text>
<polygon fill="none" stroke="#000000" points="65,-439.5 65,-469.5 265,-469.5 265,-439.5 65,-439.5"/>
<text text-anchor="start" x="72" y="-450.9" font-family="Arial" font-size="14.00" fill="#000000">creator_id </text>
<text text-anchor="start" x="138.122" y="-450.9" font-family="Arial" font-size="14.00" fill="#666666">[bigint unsigned]</text>
<polygon fill="none" stroke="#000000" points="65,-409.5 65,-439.5 265,-439.5 265,-409.5 65,-409.5"/>
<text text-anchor="start" x="71.6396" y="-420.9" font-family="Arial" font-size="14.00" fill="#000000">contractor_id </text>
<text text-anchor="start" x="156.4348" y="-420.9" font-family="Arial" font-size="14.00" fill="#666666">[bigint unsigned]</text>
<polygon fill="none" stroke="#000000" points="65,-379.5 65,-409.5 265,-409.5 265,-379.5 65,-379.5"/>
<text text-anchor="start" x="72" y="-390.9" font-family="Arial" font-size="14.00" fill="#000000">create_at </text>
<text text-anchor="start" x="134.2454" y="-390.9" font-family="Arial" font-size="14.00" fill="#666666">[datetime(3)]</text>
<polygon fill="none" stroke="#000000" points="65,-349.5 65,-379.5 265,-379.5 265,-349.5 65,-349.5"/>
<text text-anchor="start" x="72" y="-360.9" font-family="Arial" font-size="14.00" fill="#000000">update_at </text>
<text text-anchor="start" x="138.15" y="-360.9" font-family="Arial" font-size="14.00" fill="#666666">[datetime(3)]</text>
</g>
<!-- users -->
<g id="node3" class="node">
<title>users</title>
<polygon fill="#efefef" stroke="transparent" points="82,-192.5 82,-227.5 248,-227.5 248,-192.5 82,-192.5"/>
<polygon fill="none" stroke="#000000" points="82,-192.5 82,-227.5 248,-227.5 248,-192.5 82,-192.5"/>
<text text-anchor="start" x="94.3708" y="-205.3" font-family="Arial Bold" font-size="18.00" fill="#000000">users</text>
<text text-anchor="start" x="138.3754" y="-205.3" font-family="Arial" font-size="14.00" fill="#000000"> </text>
<text text-anchor="start" x="142.266" y="-205.3" font-family="Arial" font-size="14.00" fill="#666666">[BASE TABLE]</text>
<polygon fill="none" stroke="#000000" points="82,-162.5 82,-192.5 248,-192.5 248,-162.5 82,-162.5"/>
<text text-anchor="start" x="89" y="-173.9" font-family="Arial" font-size="14.00" fill="#000000">id </text>
<text text-anchor="start" x="103.7798" y="-173.9" font-family="Arial" font-size="14.00" fill="#666666">[bigint unsigned]</text>
<polygon fill="none" stroke="#000000" points="82,-132.5 82,-162.5 248,-162.5 248,-132.5 82,-132.5"/>
<text text-anchor="start" x="89" y="-143.9" font-family="Arial" font-size="14.00" fill="#000000">name </text>
<text text-anchor="start" x="127.899" y="-143.9" font-family="Arial" font-size="14.00" fill="#666666">[varchar(255)]</text>
<polygon fill="none" stroke="#000000" points="82,-102.5 82,-132.5 248,-132.5 248,-102.5 82,-102.5"/>
<text text-anchor="start" x="89" y="-113.9" font-family="Arial" font-size="14.00" fill="#000000">email </text>
<text text-anchor="start" x="126.3296" y="-113.9" font-family="Arial" font-size="14.00" fill="#666666">[varchar(255)]</text>
<polygon fill="none" stroke="#000000" points="82,-72.5 82,-102.5 248,-102.5 248,-72.5 82,-72.5"/>
<text text-anchor="start" x="89" y="-83.9" font-family="Arial" font-size="14.00" fill="#000000">created_at </text>
<text text-anchor="start" x="159.028" y="-83.9" font-family="Arial" font-size="14.00" fill="#666666">[datetime(3)]</text>
<polygon fill="none" stroke="#000000" points="82,-42.5 82,-72.5 248,-72.5 248,-42.5 82,-42.5"/>
<text text-anchor="start" x="88.7518" y="-53.9" font-family="Arial" font-size="14.00" fill="#000000">updated_at </text>
<text text-anchor="start" x="162.6844" y="-53.9" font-family="Arial" font-size="14.00" fill="#666666">[datetime(3)]</text>
</g>
<!-- orders&#45;&gt;users -->
<g id="edge1" class="edge">
<title>orders:contractor_id&#45;&gt;users:id</title>
<path fill="none" stroke="#000000" d="M274.75,-421.554C317.6694,-393.6862 299.4726,-177.5 248,-177.5"/>
<polygon fill="#000000" stroke="#000000" points="274.5726,-421.6075 263.6984,-420.1923 269.7863,-423.0538 265,-424.5 265,-424.5 265,-424.5 269.7863,-423.0538 266.3016,-428.8077 274.5726,-421.6075 274.5726,-421.6075"/>
<text text-anchor="start" x="7.4425" y="-434.5" font-family="Arial" font-size="10.00" fill="#000000">FOREIGN KEY (contractor_id) REFERENCES users (id)</text>
</g>
<!-- orders&#45;&gt;users -->
<g id="edge2" class="edge">
<title>orders:creator_id&#45;&gt;users:id</title>
<path fill="none" stroke="#000000" d="M274.7283,-451.9347C324.6023,-424.0098 306.1783,-177.5 248,-177.5"/>
<polygon fill="#000000" stroke="#000000" points="274.6695,-451.9501 263.8526,-450.1487 269.8347,-453.2251 265,-454.5 265,-454.5 265,-454.5 269.8347,-453.2251 266.1474,-458.8513 274.6695,-451.9501 274.6695,-451.9501"/>
<text text-anchor="start" x="272.1115" y="-464.5" font-family="Arial" font-size="10.00" fill="#000000">FOREIGN KEY (creator_id) REFERENCES users (id)</text>
</g>
<!-- products -->
<g id="node2" class="node">
<title>products</title>
<polygon fill="#efefef" stroke="transparent" points="369,-499.5 369,-534.5 549,-534.5 549,-499.5 369,-499.5"/>
<polygon fill="none" stroke="#000000" points="369,-499.5 369,-534.5 549,-534.5 549,-499.5 369,-499.5"/>
<text text-anchor="start" x="375.8635" y="-512.3" font-family="Arial Bold" font-size="18.00" fill="#000000">products</text>
<text text-anchor="start" x="444.8827" y="-512.3" font-family="Arial" font-size="14.00" fill="#000000"> </text>
<text text-anchor="start" x="448.7733" y="-512.3" font-family="Arial" font-size="14.00" fill="#666666">[BASE TABLE]</text>
<polygon fill="none" stroke="#000000" points="369,-469.5 369,-499.5 549,-499.5 549,-469.5 369,-469.5"/>
<text text-anchor="start" x="376" y="-480.9" font-family="Arial" font-size="14.00" fill="#000000">id </text>
<text text-anchor="start" x="390.7798" y="-480.9" font-family="Arial" font-size="14.00" fill="#666666">[bigint unsigned]</text>
<polygon fill="none" stroke="#000000" points="369,-439.5 369,-469.5 549,-469.5 549,-439.5 369,-439.5"/>
<text text-anchor="start" x="376" y="-450.9" font-family="Arial" font-size="14.00" fill="#000000">name </text>
<text text-anchor="start" x="414.899" y="-450.9" font-family="Arial" font-size="14.00" fill="#666666">[varchar(255)]</text>
<polygon fill="none" stroke="#000000" points="369,-409.5 369,-439.5 549,-439.5 549,-409.5 369,-409.5"/>
<text text-anchor="start" x="376" y="-420.9" font-family="Arial" font-size="14.00" fill="#000000">price </text>
<text text-anchor="start" x="410.223" y="-420.9" font-family="Arial" font-size="14.00" fill="#666666">[bigint unsigned]</text>
<polygon fill="none" stroke="#000000" points="369,-379.5 369,-409.5 549,-409.5 549,-379.5 369,-379.5"/>
<text text-anchor="start" x="376" y="-390.9" font-family="Arial" font-size="14.00" fill="#000000">created_at </text>
<text text-anchor="start" x="446.028" y="-390.9" font-family="Arial" font-size="14.00" fill="#666666">[datetime(3)]</text>
<polygon fill="none" stroke="#000000" points="369,-349.5 369,-379.5 549,-379.5 549,-349.5 369,-349.5"/>
<text text-anchor="start" x="376" y="-360.9" font-family="Arial" font-size="14.00" fill="#000000">updated_at </text>
<text text-anchor="start" x="449.9326" y="-360.9" font-family="Arial" font-size="14.00" fill="#666666">[datetime(3)]</text>
</g>
</g>
</svg>
