<?xml version="1.0" encoding="UTF-8" standalone="no"?>
<!DOCTYPE svg PUBLIC "-//W3C//DTD SVG 1.1//EN"
 "http://www.w3.org/Graphics/SVG/1.1/DTD/svg11.dtd">
<!-- Generated by graphviz version 2.40.1 (20161225.0304)
 -->
<!-- Title: mydb Pages: 1 -->
<svg width="575pt" height="556pt"
 viewBox="0.00 0.00 575.00 556.00" xmlns="http://www.w3.org/2000/svg" xmlns:xlink="http://www.w3.org/1999/xlink">
<g id="graph0" class="graph" transform="scale(1 1) rotate(0) translate(4 552)">
<title>mydb</title>
<polygon fill="#ffffff" stroke="transparent" points="-4,4 -4,-552 571,-552 571,4 -4,4"/>
<!-- orders -->
<g id="node1" class="node">
<title>orders</title>
<polygon fill="#efefef" stroke="transparent" points="75,-454.5 75,-489.5 240,-489.5 240,-454.5 75,-454.5"/>
<polygon fill="none" stroke="#000000" points="75,-454.5 75,-489.5 240,-489.5 240,-454.5 75,-454.5"/>
<text text-anchor="start" x="83.3716" y="-467.3" font-family="Arial Bold" font-size="18.00" fill="#000000">orders</text>
<text text-anchor="start" x="134.3746" y="-467.3" font-family="Arial" font-size="14.00" fill="#000000"> </text>
<text text-anchor="start" x="138.2652" y="-467.3" font-family="Arial" font-size="14.00" fill="#666666">[BASE TABLE]</text>
<polygon fill="none" stroke="#000000" points="75,-424.5 75,-454.5 240,-454.5 240,-424.5 75,-424.5"/>
<text text-anchor="start" x="82" y="-435.9" font-family="Arial" font-size="14.00" fill="#000000">id </text>
<text text-anchor="start" x="96.7798" y="-435.9" font-family="Arial" font-size="14.00" fill="#666666">[bigint unsigned]</text>
<polygon fill="none" stroke="#000000" points="75,-394.5 75,-424.5 240,-424.5 240,-394.5 75,-394.5"/>
<text text-anchor="start" x="81.6431" y="-405.9" font-family="Arial" font-size="14.00" fill="#000000">user_id </text>
<text text-anchor="start" x="131.4313" y="-405.9" font-family="Arial" font-size="14.00" fill="#666666">[bigint unsigned]</text>
<polygon fill="none" stroke="#000000" points="75,-364.5 75,-394.5 240,-394.5 240,-364.5 75,-364.5"/>
<text text-anchor="start" x="82" y="-375.9" font-family="Arial" font-size="14.00" fill="#000000">create_at </text>
<text text-anchor="start" x="144.2454" y="-375.9" font-family="Arial" font-size="14.00" fill="#666666">[datetime(3)]</text>
<polygon fill="none" stroke="#000000" points="75,-334.5 75,-364.5 240,-364.5 240,-334.5 75,-334.5"/>
<text text-anchor="start" x="82" y="-345.9" font-family="Arial" font-size="14.00" fill="#000000">update_at </text>
<text text-anchor="start" x="148.15" y="-345.9" font-family="Arial" font-size="14.00" fill="#666666">[datetime(3)]</text>
</g>
<!-- users -->
<g id="node3" class="node">
<title>users</title>
<polygon fill="#efefef" stroke="transparent" points="75,-162.5 75,-197.5 241,-197.5 241,-162.5 75,-162.5"/>
<polygon fill="none" stroke="#000000" points="75,-162.5 75,-197.5 241,-197.5 241,-162.5 75,-162.5"/>
<text text-anchor="start" x="87.3708" y="-175.3" font-family="Arial Bold" font-size="18.00" fill="#000000">users</text>
<text text-anchor="start" x="131.3754" y="-175.3" font-family="Arial" font-size="14.00" fill="#000000"> </text>
<text text-anchor="start" x="135.266" y="-175.3" font-family="Arial" font-size="14.00" fill="#666666">[BASE TABLE]</text>
<polygon fill="none" stroke="#000000" points="75,-132.5 75,-162.5 241,-162.5 241,-132.5 75,-132.5"/>
<text text-anchor="start" x="82" y="-143.9" font-family="Arial" font-size="14.00" fill="#000000">id </text>
<text text-anchor="start" x="96.7798" y="-143.9" font-family="Arial" font-size="14.00" fill="#666666">[bigint unsigned]</text>
<polygon fill="none" stroke="#000000" points="75,-102.5 75,-132.5 241,-132.5 241,-102.5 75,-102.5"/>
<text text-anchor="start" x="82" y="-113.9" font-family="Arial" font-size="14.00" fill="#000000">name </text>
<text text-anchor="start" x="120.899" y="-113.9" font-family="Arial" font-size="14.00" fill="#666666">[varchar(255)]</text>
<polygon fill="none" stroke="#000000" points="75,-72.5 75,-102.5 241,-102.5 241,-72.5 75,-72.5"/>
<text text-anchor="start" x="82" y="-83.9" font-family="Arial" font-size="14.00" fill="#000000">created_at </text>
<text text-anchor="start" x="152.028" y="-83.9" font-family="Arial" font-size="14.00" fill="#666666">[datetime(3)]</text>
<polygon fill="none" stroke="#000000" points="75,-42.5 75,-72.5 241,-72.5 241,-42.5 75,-42.5"/>
<text text-anchor="start" x="81.7518" y="-53.9" font-family="Arial" font-size="14.00" fill="#000000">updated_at </text>
<text text-anchor="start" x="155.6844" y="-53.9" font-family="Arial" font-size="14.00" fill="#666666">[datetime(3)]</text>
</g>
<!-- orders&#45;&gt;users -->
<g id="edge1" class="edge">
<title>orders:user_id&#45;&gt;users:id</title>
<path fill="none" stroke="#000000" d="M249.9484,-408.4185C289.1893,-399.0519 268.8189,-331.0718 240,-292 194.4383,-230.2288 120.5617,-302.7712 75,-241 50.3331,-207.5574 33.4444,-147.5 75,-147.5"/>
<polygon fill="#000000" stroke="#000000" points="249.9414,-408.4192 239.5136,-405.0264 244.9707,-408.9596 240,-409.5 240,-409.5 240,-409.5 244.9707,-408.9596 240.4864,-413.9736 249.9414,-408.4192 249.9414,-408.4192"/>
<text text-anchor="start" x="6.945" y="-419.5" font-family="Arial" font-size="10.00" fill="#000000">FOREIGN KEY (user_id) REFERENCES users (id)</text>
</g>
<!-- products -->
<g id="node2" class="node">
<title>products</title>
<polygon fill="#efefef" stroke="transparent" points="344,-469.5 344,-504.5 524,-504.5 524,-469.5 344,-469.5"/>
<polygon fill="none" stroke="#000000" points="344,-469.5 344,-504.5 524,-504.5 524,-469.5 344,-469.5"/>
<text text-anchor="start" x="350.8635" y="-482.3" font-family="Arial Bold" font-size="18.00" fill="#000000">products</text>
<text text-anchor="start" x="419.8827" y="-482.3" font-family="Arial" font-size="14.00" fill="#000000"> </text>
<text text-anchor="start" x="423.7733" y="-482.3" font-family="Arial" font-size="14.00" fill="#666666">[BASE TABLE]</text>
<polygon fill="none" stroke="#000000" points="344,-439.5 344,-469.5 524,-469.5 524,-439.5 344,-439.5"/>
<text text-anchor="start" x="351" y="-450.9" font-family="Arial" font-size="14.00" fill="#000000">id </text>
<text text-anchor="start" x="365.7798" y="-450.9" font-family="Arial" font-size="14.00" fill="#666666">[bigint unsigned]</text>
<polygon fill="none" stroke="#000000" points="344,-409.5 344,-439.5 524,-439.5 524,-409.5 344,-409.5"/>
<text text-anchor="start" x="351" y="-420.9" font-family="Arial" font-size="14.00" fill="#000000">name </text>
<text text-anchor="start" x="389.899" y="-420.9" font-family="Arial" font-size="14.00" fill="#666666">[varchar(255)]</text>
<polygon fill="none" stroke="#000000" points="344,-379.5 344,-409.5 524,-409.5 524,-379.5 344,-379.5"/>
<text text-anchor="start" x="351" y="-390.9" font-family="Arial" font-size="14.00" fill="#000000">price </text>
<text text-anchor="start" x="385.223" y="-390.9" font-family="Arial" font-size="14.00" fill="#666666">[bigint unsigned]</text>
<polygon fill="none" stroke="#000000" points="344,-349.5 344,-379.5 524,-379.5 524,-349.5 344,-349.5"/>
<text text-anchor="start" x="351" y="-360.9" font-family="Arial" font-size="14.00" fill="#000000">created_at </text>
<text text-anchor="start" x="421.028" y="-360.9" font-family="Arial" font-size="14.00" fill="#666666">[datetime(3)]</text>
<polygon fill="none" stroke="#000000" points="344,-319.5 344,-349.5 524,-349.5 524,-319.5 344,-319.5"/>
<text text-anchor="start" x="351" y="-330.9" font-family="Arial" font-size="14.00" fill="#000000">updated_at </text>
<text text-anchor="start" x="424.9326" y="-330.9" font-family="Arial" font-size="14.00" fill="#666666">[datetime(3)]</text>
</g>
</g>
</svg>
