<?xml version="1.0" encoding="UTF-8" standalone="no"?>
<!DOCTYPE svg PUBLIC "-//W3C//DTD SVG 1.1//EN"
 "http://www.w3.org/Graphics/SVG/1.1/DTD/svg11.dtd">
<!-- Generated by graphviz version 2.40.1 (20161225.0304)
 -->
<!-- Title: users Pages: 1 -->
<svg width="459pt" height="532pt"
 viewBox="0.00 0.00 459.00 532.00" xmlns="http://www.w3.org/2000/svg" xmlns:xlink="http://www.w3.org/1999/xlink">
<g id="graph0" class="graph" transform="scale(1 1) rotate(0) translate(4 528)">
<title>users</title>
<polygon fill="#ffffff" stroke="transparent" points="-4,4 -4,-528 455,-528 455,4 -4,4"/>
<!-- users -->
<g id="node1" class="node">
<title>users</title>
<polygon fill="#efefef" stroke="transparent" points="46,-165.5 46,-200.5 212,-200.5 212,-165.5 46,-165.5"/>
<polygon fill="none" stroke="#000000" points="46,-165.5 46,-200.5 212,-200.5 212,-165.5 46,-165.5"/>
<text text-anchor="start" x="58.3708" y="-178.3" font-family="Arial Bold" font-size="18.00" fill="#000000">users</text>
<text text-anchor="start" x="102.3754" y="-178.3" font-family="Arial" font-size="14.00" fill="#000000"> </text>
<text text-anchor="start" x="106.266" y="-178.3" font-family="Arial" font-size="14.00" fill="#666666">[BASE TABLE]</text>
<polygon fill="none" stroke="#000000" points="46,-135.5 46,-165.5 212,-165.5 212,-135.5 46,-135.5"/>
<text text-anchor="start" x="53" y="-146.9" font-family="Arial" font-size="14.00" fill="#000000">id </text>
<text text-anchor="start" x="67.7798" y="-146.9" font-family="Arial" font-size="14.00" fill="#666666">[bigint unsigned]</text>
<polygon fill="none" stroke="#000000" points="46,-105.5 46,-135.5 212,-135.5 212,-105.5 46,-105.5"/>
<text text-anchor="start" x="53" y="-116.9" font-family="Arial" font-size="14.00" fill="#000000">name </text>
<text text-anchor="start" x="91.899" y="-116.9" font-family="Arial" font-size="14.00" fill="#666666">[varchar(255)]</text>
<polygon fill="none" stroke="#000000" points="46,-75.5 46,-105.5 212,-105.5 212,-75.5 46,-75.5"/>
<text text-anchor="start" x="53" y="-86.9" font-family="Arial" font-size="14.00" fill="#000000">created_at </text>
<text text-anchor="start" x="123.028" y="-86.9" font-family="Arial" font-size="14.00" fill="#666666">[datetime(3)]</text>
<polygon fill="none" stroke="#000000" points="46,-45.5 46,-75.5 212,-75.5 212,-45.5 46,-45.5"/>
<text text-anchor="start" x="52.7518" y="-56.9" font-family="Arial" font-size="14.00" fill="#000000">updated_at </text>
<text text-anchor="start" x="126.6844" y="-56.9" font-family="Arial" font-size="14.00" fill="#666666">[datetime(3)]</text>
<polygon fill="none" stroke="#000000" stroke-width="3" points="44.5,-44.5 44.5,-202.5 213.5,-202.5 213.5,-44.5 44.5,-44.5"/>
</g>
<!-- orders -->
<g id="node2" class="node">
<title>orders</title>
<polygon fill="#efefef" stroke="transparent" points="46,-445.5 46,-480.5 211,-480.5 211,-445.5 46,-445.5"/>
<polygon fill="none" stroke="#000000" points="46,-445.5 46,-480.5 211,-480.5 211,-445.5 46,-445.5"/>
<text text-anchor="start" x="54.3716" y="-458.3" font-family="Arial Bold" font-size="18.00" fill="#000000">orders</text>
<text text-anchor="start" x="105.3746" y="-458.3" font-family="Arial" font-size="14.00" fill="#000000"> </text>
<text text-anchor="start" x="109.2652" y="-458.3" font-family="Arial" font-size="14.00" fill="#666666">[BASE TABLE]</text>
<polygon fill="none" stroke="#000000" points="46,-415.5 46,-445.5 211,-445.5 211,-415.5 46,-415.5"/>
<text text-anchor="start" x="53" y="-426.9" font-family="Arial" font-size="14.00" fill="#000000">id </text>
<text text-anchor="start" x="67.7798" y="-426.9" font-family="Arial" font-size="14.00" fill="#666666">[bigint unsigned]</text>
<polygon fill="none" stroke="#000000" points="46,-385.5 46,-415.5 211,-415.5 211,-385.5 46,-385.5"/>
<text text-anchor="start" x="52.6431" y="-396.9" font-family="Arial" font-size="14.00" fill="#000000">user_id </text>
<text text-anchor="start" x="102.4313" y="-396.9" font-family="Arial" font-size="14.00" fill="#666666">[bigint unsigned]</text>
<polygon fill="none" stroke="#000000" points="46,-355.5 46,-385.5 211,-385.5 211,-355.5 46,-355.5"/>
<text text-anchor="start" x="53" y="-366.9" font-family="Arial" font-size="14.00" fill="#000000">create_at </text>
<text text-anchor="start" x="115.2454" y="-366.9" font-family="Arial" font-size="14.00" fill="#666666">[datetime(3)]</text>
<polygon fill="none" stroke="#000000" points="46,-325.5 46,-355.5 211,-355.5 211,-325.5 46,-325.5"/>
<text text-anchor="start" x="53" y="-336.9" font-family="Arial" font-size="14.00" fill="#000000">update_at </text>
<text text-anchor="start" x="119.15" y="-336.9" font-family="Arial" font-size="14.00" fill="#666666">[datetime(3)]</text>
</g>
<!-- orders&#45;&gt;users -->
<g id="edge1" class="edge">
<title>orders:user_id&#45;&gt;users:id</title>
<path fill="none" stroke="#000000" d="M220.9727,-399.3998C260.419,-389.8749 241.4522,-320.8127 211,-283 163.9211,-224.5418 93.0789,-305.4582 46,-247 19.0988,-213.5966 3.1111,-150.5 46,-150.5"/>
<polygon fill="#000000" stroke="#000000" points="220.9397,-399.4034 210.5065,-396.0271 215.9698,-399.9517 211,-400.5 211,-400.5 211,-400.5 215.9698,-399.9517 211.4935,-404.9729 220.9397,-399.4034 220.9397,-399.4034"/>
<text text-anchor="start" x="217.945" y="-410.5" font-family="Arial" font-size="10.00" fill="#000000">FOREIGN KEY (user_id) REFERENCES users (id)</text>
</g>
</g>
</svg>
