<?xml version="1.0" encoding="UTF-8" standalone="no"?>
<!DOCTYPE svg PUBLIC "-//W3C//DTD SVG 1.1//EN"
 "http://www.w3.org/Graphics/SVG/1.1/DTD/svg11.dtd">
<!-- Generated by graphviz version 2.40.1 (20161225.0304)
 -->
<!-- Title: users Pages: 1 -->
<svg width="516pt" height="592pt"
 viewBox="0.00 0.00 516.00 592.00" xmlns="http://www.w3.org/2000/svg" xmlns:xlink="http://www.w3.org/1999/xlink">
<g id="graph0" class="graph" transform="scale(1 1) rotate(0) translate(4 588)">
<title>users</title>
<polygon fill="#ffffff" stroke="transparent" points="-4,4 -4,-588 512,-588 512,4 -4,4"/>
<!-- users -->
<g id="node1" class="node">
<title>users</title>
<polygon fill="#efefef" stroke="transparent" points="60,-195.5 60,-230.5 226,-230.5 226,-195.5 60,-195.5"/>
<polygon fill="none" stroke="#000000" points="60,-195.5 60,-230.5 226,-230.5 226,-195.5 60,-195.5"/>
<text text-anchor="start" x="72.3708" y="-208.3" font-family="Arial Bold" font-size="18.00" fill="#000000">users</text>
<text text-anchor="start" x="116.3754" y="-208.3" font-family="Arial" font-size="14.00" fill="#000000"> </text>
<text text-anchor="start" x="120.266" y="-208.3" font-family="Arial" font-size="14.00" fill="#666666">[BASE TABLE]</text>
<polygon fill="none" stroke="#000000" points="60,-165.5 60,-195.5 226,-195.5 226,-165.5 60,-165.5"/>
<text text-anchor="start" x="67" y="-176.9" font-family="Arial" font-size="14.00" fill="#000000">id </text>
<text text-anchor="start" x="81.7798" y="-176.9" font-family="Arial" font-size="14.00" fill="#666666">[bigint unsigned]</text>
<polygon fill="none" stroke="#000000" points="60,-135.5 60,-165.5 226,-165.5 226,-135.5 60,-135.5"/>
<text text-anchor="start" x="67" y="-146.9" font-family="Arial" font-size="14.00" fill="#000000">name </text>
<text text-anchor="start" x="105.899" y="-146.9" font-family="Arial" font-size="14.00" fill="#666666">[varchar(255)]</text>
<polygon fill="none" stroke="#000000" points="60,-105.5 60,-135.5 226,-135.5 226,-105.5 60,-105.5"/>
<text text-anchor="start" x="67" y="-116.9" font-family="Arial" font-size="14.00" fill="#000000">email </text>
<text text-anchor="start" x="104.3296" y="-116.9" font-family="Arial" font-size="14.00" fill="#666666">[varchar(255)]</text>
<polygon fill="none" stroke="#000000" points="60,-75.5 60,-105.5 226,-105.5 226,-75.5 60,-75.5"/>
<text text-anchor="start" x="67" y="-86.9" font-family="Arial" font-size="14.00" fill="#000000">created_at </text>
<text text-anchor="start" x="137.028" y="-86.9" font-family="Arial" font-size="14.00" fill="#666666">[datetime(3)]</text>
<polygon fill="none" stroke="#000000" points="60,-45.5 60,-75.5 226,-75.5 226,-45.5 60,-45.5"/>
<text text-anchor="start" x="66.7518" y="-56.9" font-family="Arial" font-size="14.00" fill="#000000">updated_at </text>
<text text-anchor="start" x="140.6844" y="-56.9" font-family="Arial" font-size="14.00" fill="#666666">[datetime(3)]</text>
<polygon fill="none" stroke="#000000" stroke-width="3" points="58.5,-44.5 58.5,-232.5 227.5,-232.5 227.5,-44.5 58.5,-44.5"/>
</g>
<!-- orders -->
<g id="node2" class="node">
<title>orders</title>
<polygon fill="#efefef" stroke="transparent" points="43,-505.5 43,-540.5 243,-540.5 243,-505.5 43,-505.5"/>
<polygon fill="none" stroke="#000000" points="43,-505.5 43,-540.5 243,-540.5 243,-505.5 43,-505.5"/>
<text text-anchor="start" x="68.8716" y="-518.3" font-family="Arial Bold" font-size="18.00" fill="#000000">orders</text>
<text text-anchor="start" x="119.8746" y="-518.3" font-family="Arial" font-size="14.00" fill="#000000"> </text>
<text text-anchor="start" x="123.7652" y="-518.3" font-family="Arial" font-size="14.00" fill="#666666">[BASE TABLE]</text>
<polygon fill="none" stroke="#000000" points="43,-475.5 43,-505.5 243,-505.5 243,-475.5 43,-475.5"/>
<text text-anchor="start" x="50" y="-486.9" font-family="Arial" font-size="14.00" fill="#000000">id </text>
<text text-anchor="start" x="64.7798" y="-486.9" font-family="Arial" font-size="14.00" fill="#666666">[bigint unsigned]</text>
<polygon fill="none" stroke="#000000" points="43,-445.5 43,-475.5 243,-475.5 243,-445.5 43,-445.5"/>
<text text-anchor="start" x="50" y="-456.9" font-family="Arial" font-size="14.00" fill="#000000">creator_id </text>
<text text-anchor="start" x="116.122" y="-456.9" font-family="Arial" font-size="14.00" fill="#666666">[bigint unsigned]</text>
<polygon fill="none" stroke="#000000" points="43,-415.5 43,-445.5 243,-445.5 243,-415.5 43,-415.5"/>
<text text-anchor="start" x="49.6396" y="-426.9" font-family="Arial" font-size="14.00" fill="#000000">contractor_id </text>
<text text-anchor="start" x="134.4348" y="-426.9" font-family="Arial" font-size="14.00" fill="#666666">[bigint unsigned]</text>
<polygon fill="none" stroke="#000000" points="43,-385.5 43,-415.5 243,-415.5 243,-385.5 43,-385.5"/>
<text text-anchor="start" x="50" y="-396.9" font-family="Arial" font-size="14.00" fill="#000000">create_at </text>
<text text-anchor="start" x="112.2454" y="-396.9" font-family="Arial" font-size="14.00" fill="#666666">[datetime(3)]</text>
<polygon fill="none" stroke="#000000" points="43,-355.5 43,-385.5 243,-385.5 243,-355.5 43,-355.5"/>
<text text-anchor="start" x="50" y="-366.9" font-family="Arial" font-size="14.00" fill="#000000">update_at </text>
<text text-anchor="start" x="116.15" y="-366.9" font-family="Arial" font-size="14.00" fill="#666666">[datetime(3)]</text>
</g>
<!-- orders&#45;&gt;users -->
<g id="edge1" class="edge">
<title>orders:contractor_id&#45;&gt;users:id</title>
<path fill="none" stroke="#000000" d="M252.8703,-427.5182C296.3317,-399.312 278.0949,-180.5 226,-180.5"/>
<polygon fill="#000000" stroke="#000000" points="252.5727,-427.608 241.6986,-426.1923 247.7864,-429.054 243,-430.5 243,-430.5 243,-430.5 247.7864,-429.054 244.3014,-434.8077 252.5727,-427.608 252.5727,-427.608"/>
<text text-anchor="start" x="250.4425" y="-440.5" font-family="Arial" font-size="10.00" fill="#000000">FOREIGN KEY (contractor_id) REFERENCES users (id)</text>
</g>
<!-- orders&#45;&gt;users -->
<g id="edge2" class="edge">
<title>orders:creator_id&#45;&gt;users:id</title>
<path fill="none" stroke="#000000" d="M252.835,-457.9069C303.2656,-429.6795 284.806,-180.5 226,-180.5"/>
<polygon fill="#000000" stroke="#000000" points="252.6696,-457.9505 241.8527,-456.1487 247.8348,-459.2252 243,-460.5 243,-460.5 243,-460.5 247.8348,-459.2252 244.1473,-464.8513 252.6696,-457.9505 252.6696,-457.9505"/>
<text text-anchor="start" x="250.1115" y="-470.5" font-family="Arial" font-size="10.00" fill="#000000">FOREIGN KEY (creator_id) REFERENCES users (id)</text>
</g>
</g>
</svg>
